<?xml version="1.0" encoding="utf-8"?>
<!-- Generator: Adobe Illustrator 24.1.1, SVG Export Plug-In . SVG Version: 6.00 Build 0)  -->
<svg version="1.1" id="Layer_1" xmlns="http://www.w3.org/2000/svg" xmlns:xlink="http://www.w3.org/1999/xlink" x="0px" y="0px"
	 viewBox="0 0 66 66" style="enable-background:new 0 0 66 66;" xml:space="preserve">
<style type="text/css">
	.st0{fill:#FAE2CA;}
	.st1{fill:#262D49;}
	.st2{fill:#C2CBE8;}
	.st3{fill:#E3C85D;}
	.st4{fill:#FFFFFF;}
	.st5{fill:#E1E5F3;}
	.st6{fill:#B6BFE1;}
	.st7{fill:#1C1F20;}
	.st8{fill:#EBEEF7;}
	.st9{fill:#D7DCEF;}
	.st10{fill:none;stroke:#1C1F20;stroke-width:1.5;stroke-linecap:round;stroke-linejoin:round;stroke-miterlimit:10;}
	.st11{fill:#F5F6FB;}
	.st12{fill:none;}
	.st13{fill:#CCA952;}
</style>
<g>
	<g>
		<g>
			<path class="st0" d="M65,33.13c0-17.67-14.33-32-32-32c-17.67,0-32,14.33-32,32c0,9.03,3.75,17.18,9.76,23h44.47
				C61.25,50.31,65,42.16,65,33.13z"/>
			<g>
				<path class="st1" d="M64,56.88H2c-0.41,0-0.75-0.34-0.75-0.75c0-0.41,0.34-0.75,0.75-0.75h62c0.41,0,0.75,0.34,0.75,0.75
					C64.75,56.54,64.41,56.88,64,56.88z"/>
			</g>
			<g>
				<path class="st2" d="M55,60.88H11c-0.41,0-0.75-0.34-0.75-0.75c0-0.41,0.34-0.75,0.75-0.75h44c0.41,0,0.75,0.34,0.75,0.75
					C55.75,60.54,55.41,60.88,55,60.88z"/>
			</g>
			<g>
				<path class="st2" d="M47,64.88h-6c-0.41,0-0.75-0.34-0.75-0.75c0-0.41,0.34-0.75,0.75-0.75h6c0.41,0,0.75,0.34,0.75,0.75
					C47.75,64.54,47.41,64.88,47,64.88z"/>
			</g>
			<g>
				<path class="st2" d="M37,64.88H19c-0.41,0-0.75-0.34-0.75-0.75c0-0.41,0.34-0.75,0.75-0.75h18c0.41,0,0.75,0.34,0.75,0.75
					C37.75,64.54,37.41,64.88,37,64.88z"/>
			</g>
		</g>
		<path class="st3" d="M5.99,51.12c-0.87-0.42-1.55-1.11-1.98-1.98c0,0,0-0.01-0.01-0.01c0,0,0,0.01-0.01,0.01
			c-0.42,0.87-1.11,1.55-1.98,1.98c0,0-0.01,0-0.01,0.01c0,0,0.01,0,0.01,0.01c0.87,0.43,1.55,1.11,1.98,1.98c0,0,0,0.01,0.01,0.01
			c0,0,0-0.01,0.01-0.01c0.43-0.87,1.11-1.55,1.98-1.98c0,0,0.01,0,0.01-0.01C6,51.12,5.99,51.12,5.99,51.12z"/>
		<path class="st3" d="M6.98,4.11c-1.3-0.64-2.33-1.67-2.97-2.97C4.01,1.14,4,1.13,4,1.13c0,0.01-0.01,0.01-0.01,0.02
			c-0.64,1.3-1.67,2.33-2.97,2.97C1.01,4.12,1.01,4.12,1,4.13c0.01,0,0.01,0.01,0.02,0.01C2.32,4.77,3.35,5.8,3.99,7.1
			C3.99,7.11,4,7.12,4,7.13C4,7.12,4.01,7.11,4.01,7.1c0.64-1.3,1.67-2.33,2.97-2.97c0.01,0,0.01-0.01,0.02-0.01
			C6.99,4.12,6.99,4.12,6.98,4.11z"/>
		<path class="st3" d="M59.99,45.12c-0.87-0.42-1.55-1.11-1.98-1.98c0,0,0-0.01-0.01-0.01c0,0,0,0.01-0.01,0.01
			c-0.42,0.87-1.11,1.55-1.98,1.98c0,0-0.01,0-0.01,0.01c0,0,0.01,0,0.01,0.01c0.87,0.43,1.55,1.11,1.98,1.98c0,0,0,0.01,0.01,0.01
			c0,0,0-0.01,0.01-0.01c0.42-0.87,1.11-1.55,1.98-1.98c0,0,0.01,0,0.01-0.01C60,45.12,59.99,45.12,59.99,45.12z"/>
		<path class="st3" d="M51.99,4.12C51.56,3.91,51.22,3.57,51,3.13c0,0,0,0,0-0.01c0,0,0,0,0,0.01c-0.21,0.43-0.56,0.78-0.99,0.99
			c0,0,0,0-0.01,0c0,0,0,0,0.01,0c0.43,0.21,0.78,0.56,0.99,0.99c0,0,0,0,0,0.01c0,0,0,0,0-0.01C51.22,4.68,51.56,4.34,51.99,4.12
			C52,4.13,52,4.13,51.99,4.12C52,4.12,52,4.12,51.99,4.12z"/>
		<path class="st3" d="M64.98,17.11c-1.3-0.64-2.33-1.67-2.97-2.97c0-0.01-0.01-0.01-0.01-0.02c0,0.01-0.01,0.01-0.01,0.02
			c-0.64,1.3-1.67,2.33-2.97,2.97c-0.01,0-0.01,0.01-0.02,0.01c0.01,0,0.01,0.01,0.02,0.01c1.3,0.64,2.33,1.67,2.97,2.97
			c0,0.01,0.01,0.01,0.01,0.02c0-0.01,0.01-0.01,0.01-0.02c0.64-1.3,1.67-2.33,2.97-2.97c0.01,0,0.01-0.01,0.02-0.01
			C64.99,17.12,64.99,17.12,64.98,17.11z"/>
	</g>
	<g>
		<g>
			<polygon class="st3" points="44,17.13 33,17.13 33,9.12 44,9.12 41,13.13 			"/>
			<polygon class="st5" points="21.3,32.73 6.86,56.13 13.85,56.13 24.8,38.4 			"/>
			<polygon class="st5" points="44.7,32.73 41.2,38.4 52.15,56.13 59.14,56.13 			"/>
			<polygon class="st4" points="33,35.13 35.83,37.95 38.98,34.8 33,25.13 27.02,34.8 30.17,37.95 			"/>
			<polygon class="st2" points="52.15,56.13 38.98,34.8 35.83,37.95 33,35.13 30.17,37.95 27.02,34.8 13.85,56.13 			"/>
			<polygon class="st9" points="42.37,36.49 41.2,38.4 52.15,56.13 54.5,56.13 			"/>
			<polygon class="st9" points="13.85,56.13 24.8,38.4 23.63,36.49 11.5,56.13 			"/>
		</g>
		<path class="st1" d="M59.78,55.73L45.33,32.34c-0.27-0.44-1-0.44-1.28,0l-2.86,4.63l-7.45-12.06v-7.04H44
			c0.28,0,0.54-0.16,0.67-0.42c0.13-0.25,0.1-0.56-0.07-0.79l-2.66-3.55l2.66-3.55c0.17-0.23,0.2-0.53,0.07-0.79
			C44.54,8.54,44.28,8.38,44,8.38H33c-0.41,0-0.75,0.34-0.75,0.75v8v7.79L24.8,36.97l-2.86-4.63c-0.14-0.22-0.38-0.36-0.64-0.36
			s-0.5,0.13-0.64,0.36L6.22,55.73c-0.14,0.23-0.15,0.52-0.02,0.76c0.13,0.24,0.38,0.38,0.66,0.38h52.29c0.27,0,0.52-0.15,0.66-0.38
			C59.93,56.25,59.92,55.96,59.78,55.73z M33,26.55l5.03,8.14l-2.2,2.2l-2.3-2.3c-0.29-0.29-0.77-0.29-1.06,0l-2.3,2.3l-2.2-2.2
			L33,26.55z M40.4,12.67c-0.2,0.27-0.2,0.63,0,0.9l2.1,2.8h-8.75v-6.5h8.75L40.4,12.67z M21.3,34.16l2.62,4.24L13.44,55.38H8.2
			L21.3,34.16z M15.2,55.38L27.16,36l2.48,2.48c0.29,0.29,0.77,0.29,1.06,0l2.3-2.3l2.3,2.3c0.15,0.15,0.34,0.22,0.53,0.22
			c0.19,0,0.38-0.07,0.53-0.22L38.84,36L50.8,55.38H15.2z M52.57,55.38L42.08,38.4l2.62-4.24l13.1,21.21H52.57z"/>
	</g>
</g>
</svg>
